<?xml version="1.0" standalone="no"?>
<!DOCTYPE svg PUBLIC "-//W3C//DTD SVG 20010904//EN"
 "http://www.w3.org/TR/2001/REC-SVG-20010904/DTD/svg10.dtd">
<svg version="1.0" xmlns="http://www.w3.org/2000/svg"
 width="140.000000pt" height="160.000000pt" viewBox="0 0 140.000000 160.000000"
 preserveAspectRatio="xMidYMid meet">

<g transform="translate(0.000000,160.000000) scale(0.100000,-0.100000)"
fill="#000000" stroke="none">
<path d="M0 805 l0 -695 700 0 700 0 0 695 0 695 -700 0 -700 0 0 -695z m724
169 c9 -4 21 -15 27 -26 8 -15 8 -19 0 -14 -6 4 -11 2 -11 -5 0 -8 -6 -6 -18
4 -10 10 -32 17 -48 17 l-29 1 25 14 c29 17 33 17 54 9z m-84 -68 c0 -8 -15
-17 -34 -20 -22 -4 -37 -14 -41 -26 -4 -11 -11 -18 -16 -15 -14 9 -11 21 14
49 24 28 77 36 77 12z m190 -1 c7 -8 8 -15 2 -15 -5 0 -15 7 -22 15 -7 8 -8
15 -2 15 5 0 15 -7 22 -15z m-241 -114 c9 -6 10 -11 2 -15 -17 -11 -13 -64 7
-76 16 -10 16 -11 -2 -8 -10 2 -27 14 -38 29 -15 20 -17 30 -9 52 11 29 18 32
40 18z m261 -62 c-13 -29 -49 -47 -70 -34 -15 10 4 31 35 39 19 5 25 13 25 34
1 24 2 25 11 9 8 -13 7 -27 -1 -48z m-171 -73 c-11 -13 -39 12 -39 34 0 10 6
20 13 23 15 5 38 -44 26 -57z m-15 -81 c-5 -11 -44 -15 -44 -5 0 12 12 19 30
17 10 0 16 -6 14 -12z m33 -7 c-3 -8 -6 -5 -6 6 -1 11 2 17 5 13 3 -3 4 -12 1
-19z m140 0 c-3 -8 -6 -5 -6 6 -1 11 2 17 5 13 3 -3 4 -12 1 -19z"/>
</g>
</svg>
