<?xml version="1.0" standalone="no"?>
<!DOCTYPE svg PUBLIC "-//W3C//DTD SVG 20010904//EN"
 "http://www.w3.org/TR/2001/REC-SVG-20010904/DTD/svg10.dtd">
<svg version="1.0" xmlns="http://www.w3.org/2000/svg"
 width="1508.000000pt" height="514.000000pt" viewBox="0 0 1508.000000 514.000000"
 preserveAspectRatio="xMidYMid meet">

<g transform="translate(0.000000,514.000000) scale(0.100000,-0.100000)"
fill="#000000" stroke="none">
<path d="M0 2570 l0 -2570 7540 0 7540 0 0 2570 0 2570 -7540 0 -7540 0 0
-2570z m4700 759 c70 -40 98 -124 63 -196 -20 -42 -82 -86 -115 -81 -20 4 -18
6 17 21 54 24 73 44 85 87 18 68 -28 151 -91 165 -16 4 -27 11 -23 16 8 14 23
11 64 -12z m135 -348 c73 -33 105 -86 105 -169 0 -95 -78 -173 -173 -174 -51
-1 -142 31 -129 44 6 6 24 3 47 -6 147 -62 284 76 213 214 -13 26 -37 53 -57
64 -46 26 -119 25 -164 -3 -40 -25 -48 -26 -41 -7 8 22 84 56 124 56 19 0 53
-9 75 -19z m7382 -301 c70 -16 149 -59 198 -107 78 -78 115 -173 115 -301 l0
-73 -300 1 c-267 1 -330 6 -287 23 6 3 1 6 -13 6 -20 1 -22 3 -10 11 13 9 13
10 0 11 -8 0 -4 5 10 9 25 8 25 8 2 9 -21 1 -22 3 -8 16 12 13 55 15 260 15
l245 0 -6 38 c-14 103 -110 216 -205 243 -60 17 -175 15 -222 -5 -21 -9 -43
-13 -49 -9 -6 3 -7 1 -3 -5 5 -8 -1 -12 -16 -12 -18 0 -20 2 -8 10 13 9 13 10
0 11 -8 0 -4 5 10 9 l25 8 -24 1 -24 1 23 20 23 20 -24 0 c-18 0 -21 2 -9 9 8
6 17 8 21 5 4 -2 9 1 11 7 10 29 183 48 265 29z m1039 -6 c-3 -9 -6 -33 -6
-54 l0 -37 -73 -5 c-130 -8 -211 -70 -248 -190 -17 -52 -19 -95 -19 -329 l0
-269 -55 0 -55 0 0 348 c0 192 -3 390 -6 440 l-7 92 57 0 56 0 0 -69 c0 -77
10 -94 31 -55 21 41 105 111 152 127 23 9 73 16 111 16 58 1 67 -1 62 -15z
m-8297 -102 c93 -47 114 -187 36 -247 -78 -60 -85 -70 -106 -142 l-22 -72 22
-50 c38 -90 20 -168 -51 -211 -71 -43 -195 -9 -204 56 -3 20 0 18 34 -15 53
-53 128 -53 181 0 43 42 49 89 21 156 -24 58 -24 78 5 176 11 38 25 63 42 75
73 50 95 77 100 124 7 62 -21 110 -79 132 -105 43 -203 -57 -162 -166 26 -71
27 -103 5 -177 -18 -58 -28 -75 -59 -97 -20 -15 -49 -40 -64 -57 -20 -22 -26
-25 -23 -11 2 11 4 22 4 26 1 3 23 22 50 42 45 32 52 42 70 104 26 85 26 89 1
143 -37 81 -17 157 52 202 49 32 98 35 147 9z m7510 -590 c41 -34 36 -48 -34
-110 -81 -71 -171 -102 -300 -103 -86 -1 -142 8 -172 27 -12 8 -30 14 -40 15
-11 0 -13 3 -5 6 6 2 12 11 12 19 0 8 -6 14 -12 15 -7 1 -2 5 12 9 25 8 25 8
2 9 -22 1 -22 2 -7 17 15 15 22 15 87 -6 132 -42 277 -8 369 86 24 24 46 44
49 44 3 0 21 -13 39 -28z"/>
</g>
</svg>
